<svg width="1024" height="1024" viewBox="0 0 1024 1024" fill="none" xmlns="http://www.w3.org/2000/svg">
<g id="icon_linux" clip-path="url(#clip0_1_620)">
<mask id="mask0_1_620" style="mask-type:alpha" maskUnits="userSpaceOnUse" x="0" y="0" width="1024" height="1024">
<g id="icon_shape_linux">
<rect width="1024" height="1024" rx="228" fill="white"/>
</g>
</mask>
<g mask="url(#mask0_1_620)">
<g id="icon_background">
<rect width="1024" height="1024" fill="url(#paint0_linear_1_620)"/>
</g>
<g id="icon_fg_linux">
<g id="Vector">
<path d="M177.666 216.729C178.337 229.563 190.413 246.05 208.31 258.574C223.666 269.534 232.056 271.263 254.024 268.406C296.205 263.036 353.485 263.575 365.85 269.641C370.731 272.055 370.551 272.291 362.158 278.402C353.558 284.541 347.133 293.459 346.428 300.016C346.005 304.735 347.475 314.071 351.615 331.416L352.879 336.86L347.452 335.897C338.14 334.399 326.723 336.15 307.639 342.325C277.301 352.243 269.684 357.826 279.564 362.744C293.2 369.592 304.269 366.828 340.144 347.688C347.866 343.681 354.481 340.882 355.009 341.658C355.33 342.462 358.09 346.434 360.85 350.405C363.729 354.466 365.898 357.987 365.628 358.342C365.358 358.696 361.41 358.487 356.81 358.154C351.557 357.697 343.588 359.089 334.628 361.781C315.905 367.484 276.285 383.208 272.28 386.503C269.321 388.915 269.287 389.449 271.885 391.429C273.42 392.599 280.916 394.767 288.508 396.074L302.207 398.676L383.2 370.804L397.078 377.089C417.968 386.667 435.615 389.479 461.761 387.754C481.164 386.303 490.843 386.586 493.204 388.387C493.677 388.747 492.146 390.754 490.02 393.054C485.351 397.709 463.223 409.592 417.91 431.805C376.681 452.09 376.203 452.472 392.789 450.554C408.452 448.865 413.518 450.301 414.298 456.87C415.006 461.33 414.466 462.038 390.825 492.558C374.836 513.042 367.269 523.703 368.456 523.86C369.406 523.838 380.791 518.701 393.727 512.507C447.685 486.056 481.297 475.273 498.55 479.091C508.481 481.248 512.586 484.19 516.74 492.211C521.388 501.542 520.665 514.247 513.557 549.529C501.471 609.955 502.537 640.639 519.395 709.875C531.821 761.168 531.088 767.518 506.521 813.947C477.942 868.334 469.853 892.413 469.749 924.633C469.598 940.014 472.181 955.239 475.706 960.167C477.791 963.063 477.881 962.945 485.443 953.027C494.174 941.573 499.796 929.056 518.239 879.638C544.99 808.548 555.311 783.744 570.358 754.7C585.556 725.213 587.481 718.279 593.236 673.75C596.432 648.742 602.387 631.624 615.418 609.633C666.428 523.618 686.09 481.663 692.163 445.778C695.12 428.429 697.289 394.237 696.41 381.431C695.351 368.861 690.826 358.877 685.197 357.2C679.36 355.55 674.472 357.798 657.181 370.194C617.94 398.157 592.377 408.914 576.378 404.185C570.305 402.356 569.506 401.934 567.432 397.552C563.869 389.981 565.76 383.582 575.15 371.51C582.981 361.237 593.832 352.146 599.873 350.59C601.301 350.186 607.561 351.037 613.994 352.394C642.455 358.408 678.16 341.94 690.382 317.091C699.887 298.012 699.797 298.13 706.472 298.925C713.473 299.782 722.124 294.801 728.516 286.418C733.647 279.687 734.058 276.454 731.012 267.224L728.489 259.513L734.52 251.602C745.682 236.96 769.498 221.883 782.569 221.392C788.125 220.961 788.479 221.231 788.366 224.318C788.292 226.129 785.85 230.802 782.61 235.053C777.119 242.255 776.995 242.908 776.118 259.976C774.909 281.645 770.995 299.758 764.467 314.199C758.907 326.39 737.202 356.331 719.228 376.235C713.805 382.369 709.934 387.446 710.524 387.896C712.059 389.067 735.224 369.946 749.44 355.952C779.457 326.373 793.615 297.026 796.472 258.503C797.228 249.184 798.912 238.893 800.482 235.609C802.024 232.117 809.378 222.226 818.581 211.133C829.614 197.886 833.636 192.364 832.692 191.644C831.983 191.104 825.431 193.577 818.068 197.112C795.322 208.337 786.351 208.593 769.027 198.746C746.175 185.619 716.025 186.719 687.608 201.462C657.938 217.117 626.052 250.126 612.096 280.188C608.624 287.436 604.652 294.116 603.308 295.145C597.784 298.962 559.734 292.546 540.317 284.464C525.725 278.381 508.75 265.626 489.094 246.348C475.156 232.548 473.267 231.108 463.623 226.37C448.092 218.824 437.344 218.472 398.639 223.692C340.283 231.667 309.33 229.167 219.358 209.306C195.553 204.041 182.995 203.616 179.575 208.103C178.404 209.638 177.543 213.462 177.666 216.729Z" fill="url(#paint1_linear_1_620)"/>
<path d="M203.569 291.994C207.144 298.08 221.995 305.294 235.43 307.508C256.783 311.091 293.419 304.668 326.514 291.624C341.29 285.712 346.875 281.568 343.569 279.048C334.595 272.207 283.682 270.173 242.784 274.841C221.918 277.231 210.254 280.287 204.932 284.819C201.523 287.821 201.399 288.473 203.569 291.994Z" fill="url(#paint2_linear_1_620)"/>
<path d="M241.396 330.54C241.39 331.283 243.954 333.797 246.906 336.048C259.304 345.5 276.682 344.745 308.753 333.534C330.103 326.1 340.475 321.311 343.176 317.769C344.886 315.526 344.594 314.929 340.747 313.117C328.736 307.321 305.521 306.426 284.014 311.127C257.478 317.036 240.61 324.714 241.396 330.54Z" fill="url(#paint3_linear_1_620)"/>
<path d="M125.23 583.083C128.418 585.514 155.692 591.37 160.478 590.725C162.975 590.388 209.473 572.253 263.869 550.616L362.681 511.124L379.77 498.014C389.181 490.812 397.163 484.015 397.439 482.919C397.743 482.03 396.394 479.881 394.386 478.351C391.435 476.101 391.03 474.672 391.987 469.988C392.635 466.934 392.54 463.875 391.714 463.245C386.991 459.644 329.294 463.081 301.038 468.798C276.471 473.594 215.62 492.923 198.51 501.163C190.551 504.991 185.91 509.854 188.508 511.835C189.452 512.555 195.723 511.921 202.534 510.579C216.364 507.866 226.313 507.796 233.477 510.644C244.549 514.977 241.133 522.642 222.835 534.644C200.538 549.198 182.505 557.668 146.531 570.57C126.311 577.746 121.687 580.383 125.23 583.083Z" fill="url(#paint4_linear_1_620)"/>
<path d="M333.223 416.787C333.931 417.327 336.035 417.997 337.992 418.369C343.745 419.394 373.911 419.988 381.312 419.095C399.619 417.368 439.638 399.895 437.66 394.653C435.215 388.308 379.48 395.294 348.9 405.774C337.049 409.809 330.271 414.537 333.223 416.787Z" fill="url(#paint5_linear_1_620)"/>
<path d="M420.46 538.929C417.932 546.897 420.384 548.58 428.995 544.876C444.013 538.401 486.752 507.319 499.719 493.493C505.648 487.185 506.099 486.594 503.399 486.217C498.743 485.467 473.202 493.255 460.862 499.157C454.573 502.017 446.519 506.706 442.755 509.438C434.273 515.667 423.229 530.398 420.46 538.929Z" fill="url(#paint6_linear_1_620)"/>
<path d="M445.435 561.516C443.392 568.36 443.858 569.462 448.673 569.025C459.488 568.308 486.848 548.092 499.09 532.034C506.894 521.553 508.475 516.784 504.815 513.994C502.689 512.374 494.674 515.785 481.574 523.908C463.996 534.965 448.756 550.792 445.435 561.516Z" fill="url(#paint7_linear_1_620)"/>
<path d="M454.445 597.697C451.829 601.864 450.253 605.89 450.782 606.666C451.839 608.219 462.216 602.688 470.435 596.071C484.391 584.866 506.714 559.503 509.567 551.596C511.239 546.71 507.241 545.342 500.918 548.737C488.842 555.027 477.957 564.652 468.382 577.702C463.279 584.641 456.972 593.649 454.445 597.697Z" fill="url(#paint8_linear_1_620)"/>
<path d="M420.286 678.261C412.993 691.745 408.755 701.957 409.542 703.864C410.503 706.277 414.727 705.389 420.251 701.572C425.297 698.137 425.505 698.109 425.982 701.647C426.172 703.846 423.167 712.197 418.637 721.812C410.753 738.766 407.392 750.767 409.314 755.593C410.77 759.316 411.574 758.996 418.752 752.519C426.588 745.424 490.493 662.331 491.839 657.383L492.819 653.649L484.855 654.299C480.367 654.798 476.211 654.617 475.502 654.077C474.085 652.997 475.667 648.228 483.765 630.504C491.953 612.661 499.405 590.151 497.634 588.801C496.099 587.63 487.937 594.664 469.226 613.819C454.707 628.702 428.062 663.652 420.286 678.261Z" fill="url(#paint9_linear_1_620)"/>
<path d="M452.764 736.068C443.97 751.767 437.34 767.81 435.234 778.9C433.403 788.893 433.729 811.732 435.831 816.322C437.202 819.421 437.382 819.185 440.364 813.804C442.17 810.7 449.091 799.173 455.798 788.416C469.571 766.43 478.349 749.038 489.729 721.866C503.134 690.078 508.465 669.125 503.421 668.64C500.632 668.38 462.009 719.778 452.764 736.068Z" fill="url(#paint10_linear_1_620)"/>
<path d="M494.483 736.694C458.26 796.454 440.696 835.901 436.863 866.399C434.958 882.123 439.822 905.621 446.332 912.265C448.896 914.779 449.284 914.515 454.59 908.291C461.273 900.504 476.782 865.465 486.452 836.617C499.832 796.781 511.65 747.727 512.02 730.833C512.079 723.409 508.858 717.593 506.337 720.899C505.707 721.726 504.121 723.317 502.894 724.436C501.668 725.555 497.853 731.048 494.483 736.694Z" fill="url(#paint11_linear_1_620)"/>
</g>
</g>
</g>
</g>
<defs>
<linearGradient id="paint0_linear_1_620" x1="512" y1="0" x2="512" y2="1024" gradientUnits="userSpaceOnUse">
<stop stop-color="#041425"/>
<stop offset="1" stop-color="#020A12"/>
</linearGradient>
<linearGradient id="paint1_linear_1_620" x1="833" y1="190" x2="124" y2="962" gradientUnits="userSpaceOnUse">
<stop stop-color="#A3CCF5"/>
<stop offset="1" stop-color="#4799EB"/>
</linearGradient>
<linearGradient id="paint2_linear_1_620" x1="833" y1="190" x2="124" y2="962" gradientUnits="userSpaceOnUse">
<stop stop-color="#A3CCF5"/>
<stop offset="1" stop-color="#4799EB"/>
</linearGradient>
<linearGradient id="paint3_linear_1_620" x1="833" y1="190" x2="124" y2="962" gradientUnits="userSpaceOnUse">
<stop stop-color="#A3CCF5"/>
<stop offset="1" stop-color="#4799EB"/>
</linearGradient>
<linearGradient id="paint4_linear_1_620" x1="833" y1="190" x2="124" y2="962" gradientUnits="userSpaceOnUse">
<stop stop-color="#A3CCF5"/>
<stop offset="1" stop-color="#4799EB"/>
</linearGradient>
<linearGradient id="paint5_linear_1_620" x1="833" y1="190" x2="124" y2="962" gradientUnits="userSpaceOnUse">
<stop stop-color="#A3CCF5"/>
<stop offset="1" stop-color="#4799EB"/>
</linearGradient>
<linearGradient id="paint6_linear_1_620" x1="833" y1="190" x2="124" y2="962" gradientUnits="userSpaceOnUse">
<stop stop-color="#A3CCF5"/>
<stop offset="1" stop-color="#4799EB"/>
</linearGradient>
<linearGradient id="paint7_linear_1_620" x1="833" y1="190" x2="124" y2="962" gradientUnits="userSpaceOnUse">
<stop stop-color="#A3CCF5"/>
<stop offset="1" stop-color="#4799EB"/>
</linearGradient>
<linearGradient id="paint8_linear_1_620" x1="833" y1="190" x2="124" y2="962" gradientUnits="userSpaceOnUse">
<stop stop-color="#A3CCF5"/>
<stop offset="1" stop-color="#4799EB"/>
</linearGradient>
<linearGradient id="paint9_linear_1_620" x1="833" y1="190" x2="124" y2="962" gradientUnits="userSpaceOnUse">
<stop stop-color="#A3CCF5"/>
<stop offset="1" stop-color="#4799EB"/>
</linearGradient>
<linearGradient id="paint10_linear_1_620" x1="833" y1="190" x2="124" y2="962" gradientUnits="userSpaceOnUse">
<stop stop-color="#A3CCF5"/>
<stop offset="1" stop-color="#4799EB"/>
</linearGradient>
<linearGradient id="paint11_linear_1_620" x1="833" y1="190" x2="124" y2="962" gradientUnits="userSpaceOnUse">
<stop stop-color="#A3CCF5"/>
<stop offset="1" stop-color="#4799EB"/>
</linearGradient>
<clipPath id="clip0_1_620">
<rect width="1024" height="1024" fill="white"/>
</clipPath>
</defs>
</svg>
